<?xml version="1.0" standalone="no"?>
<!DOCTYPE svg PUBLIC "-//W3C//DTD SVG 1.1//EN"
  "http://www.w3.org/Graphics/SVG/1.1/DTD/svg11.dtd">
<svg width="40mm" height="41.729999542236314mm" viewBox="-1 8.999999999999998 40 41.729999542236314" xmlns="http://www.w3.org/2000/svg" version="1.1">
	<title>svgOutput</title>
	<desc>made with tinkercad</desc>
<path d="M 6.947000026702881 14.312999725341793 L 7.184999942779541 14.136367797851559 L 8.192000389099121 13.389021873474118 L 8.295782089233398 13.3120002746582 L 8.444000244140625 13.201999664306637 L 8.704000473022461 13.046065330505368 L 9.114279747009277 12.80000019073486 L 9.215999603271484 12.738992691040036 L 9.727999687194824 12.43192100524902 L 9.967968940734863 12.28800010681152 L 10.043000221252441 12.243000030517575 L 10.239999771118164 12.14987468719482 L 11.263999938964844 11.66581344604492 L 11.729000091552734 11.446000099182127 L 11.776000022888184 11.429191589355467 L 12.23790454864502 11.263999938964842 L 12.288000106811523 11.246084213256834 L 13.312000274658203 10.879870414733885 L 13.484999656677246 10.817999839782713 L 13.748416900634766 10.751999855041502 L 14.336000442504883 10.604779243469237 L 14.847999572753906 10.47649574279785 L 15.293000221252441 10.364999771118162 L 15.359999656677246 10.355050086975096 L 16.13469696044922 10.239999771118162 L 16.384000778198242 10.202976226806639 L 17.13800048828125 10.090999603271483 L 18.43199920654297 10.027759552001951 L 19 9.999999999999998 L 20.479999542236328 10.072330474853514 L 20.86199951171875 10.090999603271483 L 21.86530303955078 10.239999771118162 L 22.527999877929688 10.338417053222654 L 22.707000732421875 10.364999771118162 L 23.040000915527344 10.448433876037596 L 23.552000045776367 10.576717376708983 L 24.251583099365234 10.751999855041502 L 24.514999389648438 10.817999839782713 L 24.576000213623047 10.839815139770506 L 25.762096405029297 11.263999938964842 L 26.11199951171875 11.389136314392088 L 26.270999908447266 11.446000099182127 L 26.624000549316406 11.61286926269531 L 27.957000732421875 12.243000030517575 L 28.032032012939453 12.28800010681152 L 28.15999984741211 12.364748954772946 L 28.672000885009766 12.671821594238278 L 28.88572120666504 12.80000019073486 L 29.18400001525879 12.978893280029293 L 29.555999755859375 13.201999664306637 L 29.695999145507812 13.305901527404782 L 29.7042179107666 13.3120002746582 L 30.684999465942383 14.039888381958004 L 30.719999313354492 14.065863609313961 L 31.05299949645996 14.312999725341793 L 31.078388214111328 14.33600044250488 L 31.23200035095215 14.475162506103512 L 31.643550872802734 14.847999572753903 L 31.743999481201172 14.939000129699703 L 32.20871353149414 15.359999656677243 L 32.25600051879883 15.402837753295895 L 32.435001373291016 15.564999580383297 L 32.7131233215332 15.871999740600582 L 32.768001556396484 15.932577133178707 L 33.17695999145508 16.38400077819824 L 33.64079666137695 16.895999908447262 L 33.6870002746582 16.947000503540036 L 33.79199981689453 17.088479995727536 L 34.02913284301758 17.40800094604492 L 34.19619369506836 17.633104324340817 L 34.789093017578125 18.431999206542965 L 34.79800033569336 18.44400024414062 L 34.816001892089844 18.474012374877926 L 35.404945373535156 19.455999374389645 L 35.71201705932617 19.9680004119873 L 35.75699996948242 20.04299926757812 L 35.84000015258789 20.218580245971676 L 35.96357727050781 20.479999542236325 L 36.44763946533203 21.503999710083004 L 36.55400085449219 21.72900009155273 L 36.656639099121094 22.01600074768066 L 36.83974838256836 22.527999877929684 L 36.86399841308594 22.595815658569332 L 37.02285385131836 23.04000091552734 L 37.18199920654297 23.48500061035156 L 37.198787689208984 23.552000045776364 L 37.455352783203125 24.57600021362304 L 37.58363723754883 25.087999343872063 L 37.6349983215332 25.292999267578118 L 37.68059158325195 25.60000038146972 L 37.832664489746094 26.6240005493164 L 37.88800048828125 26.996595382690423 L 37.909000396728516 27.138000488281243 L 37.93392562866211 27.64800071716308 L 37.983970642089844 28.67200088500976 L 38 28.999999999999993 L 37.96598434448242 29.695999145507805 L 37.91593933105469 30.719999313354485 L 37.909000396728516 30.861999511718743 L 37.88800048828125 31.003404617309563 L 37.85404968261719 31.23200035095214 L 37.77801513671875 31.743999481201165 L 37.70197677612305 32.25600051879882 L 37.6349983215332 32.70700073242187 L 37.61971664428711 32.76800155639648 L 37.36315155029297 33.791999816894524 L 37.234867095947266 34.30400085449218 L 37.18199920654297 34.51499938964843 L 37.0743522644043 34.81600189208984 L 36.86399841308594 35.40418624877929 L 36.732505798339844 35.77186965942382 L 36.70813751220703 35.84000015258788 L 36.55400085449219 36.27099990844726 L 36.515708923339844 36.35200119018554 L 36.273677825927734 36.86399841308593 L 35.84000015258789 37.78141784667968 L 35.789615631103516 37.88800048828124 L 35.75699996948242 37.95700073242187 L 35.491310119628906 38.4000015258789 L 35.18423843383789 38.91199874877929 L 34.816001892089844 39.52598571777343 L 34.79800033569336 39.55599975585937 L 34.51598358154297 39.9360008239746 L 33.79199981689453 40.91151809692382 L 33.756019592285156 40.95999908447265 L 33.6870002746582 41.05300140380859 L 33.30741500854492 41.472000122070305 L 32.84357452392578 41.98400115966796 L 32.768001556396484 42.067424774169915 L 32.435001373291016 42.43500137329101 L 32.3676643371582 42.49599838256835 L 31.80250358581543 43.00799942016601 L 31.743999481201172 43.0610008239746 L 31.237340927124023 43.520000457763665 L 31.23200035095215 43.52483749389648 L 31.05299949645996 43.687000274658196 L 30.719999313354492 43.93413543701171 L 30.684999465942383 43.96010971069335 L 30.684999465942383 44.03200149536132 L 30.684999465942383 45.05599975585937 L 30.684999465942383 47.999999999999986 L 30.684999465942383 48.918998718261705 L 30.679000854492188 48.98300170898436 L 30.65999984741211 49.04600143432616 L 30.628000259399414 49.10800170898436 L 30.59677505493164 49.15200042724608 L 30.583999633789062 49.1699981689453 L 30.527999877929688 49.22900009155272 L 30.461000442504883 49.28699874877928 L 30.381999969482422 49.34299850463866 L 30.29199981689453 49.39599990844725 L 30.191999435424805 49.4459991455078 L 30.08300018310547 49.49200057983397 L 29.964000701904297 49.53599929809569 L 29.836999893188477 49.57500076293944 L 29.702999114990234 49.61000061035155 L 29.695999145507812 49.61158752441405 L 29.562000274658203 49.64199829101561 L 29.416000366210938 49.66799926757811 L 29.263999938964844 49.68999862670897 L 29.108999252319336 49.708000183105455 L 28.950000762939453 49.72000122070311 L 28.790000915527344 49.72700119018553 L 28.672000885009766 49.72919845581053 L 28.628999710083008 49.729999542236314 L 24.576000213623047 49.729999542236314 L 16.384000778198242 49.729999542236314 L 9.241000175476074 49.729999542236314 L 9.079999923706055 49.72700119018553 L 8.920000076293945 49.72000122070311 L 8.76099967956543 49.708000183105455 L 8.605999946594238 49.68999862670897 L 8.454000473022461 49.66799926757811 L 8.307999610900879 49.64199829101561 L 8.192000389099121 49.61567306518553 L 8.166999816894531 49.61000061035155 L 8.032999992370605 49.57500076293944 L 7.906000137329102 49.53599929809569 L 7.7870001792907715 49.49200057983397 L 7.677999973297119 49.4459991455078 L 7.578000068664551 49.39599990844725 L 7.48799991607666 49.34299850463866 L 7.408999919891357 49.28699874877928 L 7.3420000076293945 49.22900009155272 L 7.285999774932861 49.1699981689453 L 7.273225784301758 49.15200042724608 L 7.242000102996826 49.10800170898436 L 7.210000038146973 49.04600143432616 L 7.190999984741211 48.98300170898436 L 7.184999942779541 48.918998718261705 L 7.184999942779541 47.999999999999986 L 7.184999942779541 45.05599975585937 L 7.184999942779541 44.03200149536132 L 7.184999942779541 43.95073699951171 L 7.184999942779541 43.86363220214843 L 7.168000221252441 43.85101699829101 L 6.947000026702881 43.687000274658196 L 6.762659549713135 43.520000457763665 L 6.1974968910217285 43.00799942016601 L 6.144000053405762 42.95953369140624 L 5.632333755493164 42.49599838256835 L 5.631999969482422 42.49569702148437 L 5.565000057220459 42.43500137329101 L 5.156424045562744 41.98400115966796 L 5.119999885559082 41.943794250488274 L 4.6925859451293945 41.472000122070305 L 4.607999801635742 41.37863159179687 L 4.313000202178955 41.05300140380859 L 4.2439799308776855 40.95999908447265 L 4.0960001945495605 40.76060485839843 L 3.4840173721313477 39.9360008239746 L 3.2019999027252197 39.55599975585937 L 3.122833013534546 39.423999786376946 L 3.072000026702881 39.33924484252929 L 2.815761089324951 38.91199874877929 L 2.5086891651153564 38.4000015258789 L 2.243000030517578 37.95700073242187 L 2.2103824615478516 37.88800048828124 L 2.0480000972747803 37.54449081420898 L 1.7263208627700806 36.86399841308593 L 1.4842900037765503 36.35200119018554 L 1.4459999799728394 36.27099990844726 L 1.2918610572814941 35.84000015258788 L 0.9256469011306763 34.81600189208984 L 0.8180000185966492 34.51499938964843 L 0.7651333212852478 34.30400085449218 L 0.636850118637085 33.791999816894524 L 0.38028374314308167 32.76800155639648 L 0.36500000953674316 32.70700073242187 L 0.29802221059799194 32.25600051879882 L 0.2219853699207306 31.743999481201165 L 0.14594851434230804 31.23200035095214 L 0.09099999815225601 30.861999511718743 L 0.08406014740467072 30.719999313354485 L 0.03401503711938858 29.695999145507805 L 0.008992481045424938 29.184000015258782 L 0 28.999999999999993 L 0.016030075028538704 28.67200088500976 L 0.06607519090175629 27.64800071716308 L 0.09099999815225601 27.138000488281243 L 0.09129701554775238 27.135999679565423 L 0.16733387112617493 26.6240005493164 L 0.31940758228302 25.60000038146972 L 0.36500000953674316 25.292999267578118 L 0.416363388299942 25.087999343872063 L 0.5446465611457825 24.57600021362304 L 0.8012129664421082 23.552000045776364 L 0.8180000185966492 23.48500061035156 L 1.0240000486373901 22.908987045288082 L 1.1602528095245361 22.527999877929684 L 1.3433599472045898 22.01600074768066 L 1.4459999799728394 21.72900009155273 L 1.5360000133514404 21.53861045837402 L 1.552361249923706 21.503999710083004 L 2.0364229679107666 20.479999542236325 L 2.0480000972747803 20.455509185791012 L 2.243000030517578 20.04299926757812 L 2.2879812717437744 19.9680004119873 L 2.595053195953369 19.455999374389645 L 3.072000026702881 18.660757064819332 L 3.2019999027252197 18.44400024414062 L 3.2109057903289795 18.431999206542965 L 4.0960001945495605 17.239393234252926 L 4.313000202178955 16.947000503540036 L 4.3592023849487305 16.895999908447262 L 4.82304048538208 16.38400077819824 L 5.119999885559082 16.056205749511715 L 5.28687858581543 15.871999740600582 L 5.565000057220459 15.564999580383297 L 5.631999969482422 15.504302024841305 L 5.791285991668701 15.359999656677243 L 6.144000053405762 15.040464401245114 L 6.356448650360107 14.847999572753903 L 6.656000137329102 14.576626777648922 L 6.921611785888672 14.33600044250488 L 6.947000026702881 14.312999725341793 M 21.450000762939453 12.3769998550415 L 20.479999542236328 12.3769998550415 L 16.549999237060547 12.3769998550415 L 16.549999237060547 12.28800010681152 L 16.549999237060547 11.688726425170897 L 16.384000778198242 11.713416099548338 L 15.579999923706055 11.833000183105467 L 14.336000442504883 12.144558906555172 L 13.91100025177002 12.251000404357907 L 13.807655334472656 12.28800010681152 L 12.291000366210938 12.831000328063961 L 12.288000106811523 12.832418441772457 L 10.736000061035156 13.565999984741207 L 10.239999771118164 13.863398551940914 L 9.451796531677246 14.33600044250488 L 9.260000228881836 14.451000213623043 L 8.192000389099121 15.243686676025387 L 8.03528881072998 15.359999656677243 L 7.879000186920166 15.475999832153317 L 7.184999942779541 16.104682922363278 L 6.876662254333496 16.38400077819824 L 6.614680767059326 16.621324539184567 L 6.144000053405762 17.140522003173825 L 5.901517868041992 17.40800094604492 L 5.440179347991943 17.91689300537109 L 5.058135509490967 18.431999206542965 L 4.423999786376953 19.287000656127926 L 4.0960001945495605 19.83428573608398 L 3.7090089321136475 20.479999542236325 L 3.5399999618530273 20.76199913024902 L 2.803999900817871 22.318000793457028 L 2.7287683486938477 22.527999877929684 L 2.2239999771118164 23.9370002746582 L 2.063962936401367 24.57600021362304 L 2.0480000972747803 24.639736175537102 L 1.8075027465820312 25.60000038146972 L 1.805999994277954 25.606000900268548 L 1.6551852226257324 26.6240005493164 L 1.5540000200271606 27.30699920654296 L 1.5371384620666504 27.64800071716308 L 1.486504316329956 28.67200088500976 L 1.470321536064148 28.99927330017089 L 1.504804015159607 29.695999145507805 L 1.5554838180541992 30.719999313354485 L 1.5580118894577026 30.771080017089837 L 1.702148199081421 31.743999481201165 L 1.805999994277954 32.44499969482421 L 1.8868951797485352 32.76800155639648 L 2.0480000972747803 33.411262512207024 L 2.2239999771118164 34.11399841308593 L 2.4753334522247314 34.81600189208984 L 2.803999900817871 35.73400115966796 L 3.3388423919677734 36.86399841308593 L 3.5399999618530273 37.28900146484374 L 3.8987507820129395 37.88800048828124 L 4.0960001945495605 38.21734237670898 L 4.423999786376953 38.76499938964843 L 4.533105850219727 38.91199874877929 L 5.293134689331055 39.9360008239746 L 5.448999881744385 40.14599990844726 L 6.144000053405762 40.91381072998046 L 6.185810565948486 40.95999908447265 L 6.604000091552734 41.42200088500976 L 7.184999942779541 41.948318481445305 L 7.281000137329102 42.03528213500976 L 7.879000186920166 42.57699966430663 L 8.154999732971191 42.78177261352538 L 8.154999732971191 42.78200149536132 L 8.155303955078125 42.78200149536132 L 8.182999610900879 42.78200149536132 L 8.182999610900879 48.728000640869126 L 8.192000389099121 48.728000640869126 L 13.122827529907227 48.728000640869126 L 16.384000778198242 48.728000640869126 L 24.576000213623047 48.728000640869126 L 28.871000289916992 48.728000640869126 L 29.687000274658203 48.728000640869126 L 29.687000274658203 42.78200149536132 L 29.844053268432617 42.78200149536132 L 30.121000289916992 42.57699966430663 L 30.59000015258789 42.15180587768554 L 30.684999465942383 42.065681457519524 L 30.719999313354492 42.033950805664055 L 30.775096893310547 41.98400115966796 L 31.395000457763672 41.42200088500976 L 31.813190460205078 40.95999908447265 L 32.54999923706055 40.14599990844726 L 32.768001556396484 39.852283477783196 L 33.46589279174805 38.91199874877929 L 33.57500076293945 38.76499938964843 L 34.459999084472656 37.28900146484374 L 34.660884857177734 36.86399841308593 L 34.816001892089844 36.53583145141601 L 35.1448974609375 35.84000015258788 L 35.19499969482422 35.73400115966796 L 35.52366638183594 34.81600189208984 L 35.775001525878906 34.11399841308593 L 36.11210632324219 32.76800155639648 L 36.19300079345703 32.44499969482421 L 36.44599914550781 30.743999481201165 L 36.52899932861328 29.02599906921386 L 36.511905670166016 28.67200088500976 L 36.44599914550781 27.30699920654296 L 36.19300079345703 25.606000900268548 L 35.935035705566406 24.57600021362304 L 35.775001525878906 23.9370002746582 L 35.270233154296875 22.527999877929684 L 35.19499969482422 22.318000793457028 L 34.816001892089844 21.51565361022949 L 34.459999084472656 20.76199913024902 L 34.29079818725586 20.479999542236325 L 33.67639923095703 19.455999374389645 L 33.57500076293945 19.287000656127926 L 32.94086456298828 18.431999206542965 L 32.768001556396484 18.198926925659176 L 32.54999923706055 17.905000686645504 L 31.395000457763672 16.631000518798825 L 31.12255096435547 16.38400077819824 L 30.719999313354492 16.019048690795895 L 30.684999465942383 15.987318992614743 L 30.121000289916992 15.475999832153317 L 28.73900032043457 14.451000213623043 L 28.672000885009766 14.410827636718746 L 28.547203063964844 14.33600044250488 L 27.26300048828125 13.565999984741207 L 26.72562599182129 13.3120002746582 L 26.624000549316406 13.263964653015133 L 25.70800018310547 12.831000328063961 L 24.576000213623047 12.425465583801266 L 24.449087142944336 12.380000114440914 L 24.19228172302246 12.28800010681152 L 24.089000701904297 12.251000404357907 L 22.527999877929688 11.860048294067381 L 22.420000076293945 11.833000183105467 L 21.450000762939453 11.68881034851074 L 21.450000762939453 12.28800010681152 L 21.450000762939453 12.3769998550415 z" fill="none" stroke="rgb(255,0,0)" stroke-width="0.001mm" />
</svg>
